<svg width="120" height="120" viewBox="0 0 120 120" fill="none" xmlns="http://www.w3.org/2000/svg">
    <g id="htmlIcon">
        <path d="M22.1323 102.004L13.7061 7.5H106.294L97.856 101.989L59.9436 112.5L22.1323 102.004Z" fill="#E44F26"/>
        <path d="M60 104.468L90.6375 95.9738L97.845 15.2288H60V104.468Z" fill="#F1662A"/>
        <path d="M60 50.2762H44.6625L43.605 38.4075H60V26.8162H30.9375L31.215 29.9287L34.0613 61.8675H60V50.2762ZM60 80.3775L59.9475 80.3925L47.04 76.9087L46.215 67.665H34.5787L36.2025 85.86L59.9475 92.4525L60 92.4375V80.3775Z" fill="#EBEBEB"/>
        <path d="M59.959 50.2762V61.8675H74.2315L72.889 76.9012L59.959 80.3887V92.4487L83.7227 85.86L83.8952 83.9025L86.6177 53.3887L86.9027 50.2762H59.959ZM59.959 26.8162V38.4075H87.9565L88.189 35.805L88.7177 29.9287L88.9952 26.8162H59.959Z" fill="white"/>
    </g>

    <g id="cssIcon">
        <path d="M22.1325 101.154L13.71 7.4375H106.29L97.8562 101.139L59.9437 111.562L22.1325 101.154Z" fill="#1572B6"/>
        <path d="M60 103.597L90.6375 95.174L97.845 15.1019H60V103.597Z" fill="#33A9DC"/>
        <path d="M60 49.054H75.3375L76.395 37.2842H60V25.7896H89.0625L88.785 28.8724L85.9387 60.5487H60V49.054Z" fill="white"/>
        <path d="M60.0711 78.9045L60.0186 78.9193L47.1112 75.4609L46.2862 66.2942H34.6499L36.2737 84.3413L60.0149 90.8788L60.0711 90.864V78.9045Z" fill="#EBEBEB"/>
        <path d="M74.3513 60.0615L72.9563 75.4534L60.03 78.9119V90.8714L83.79 84.3412L83.9663 82.4001L85.98 60.0615H74.3513Z" fill="white"/>
        <path d="M60.0411 25.7896V37.2842H32.0436L31.8111 34.6997L31.2824 28.8724L31.0049 25.7896H60.0411ZM59.9999 49.054V60.5487H47.2536L47.0211 57.9642L46.4961 52.1369L46.2186 49.054H59.9999Z" fill="#EBEBEB"/>
    </g>

    <g id="jsIcon">
        <path d="M7.5 7.5H112.5V112.5H7.5V7.5Z" fill="#F5DE19"/>
        <path d="M78.0338 89.5312C78.9284 91.3485 80.3183 92.8759 82.0434 93.9375C83.7684 94.9991 85.7584 95.5515 87.7838 95.5313C91.8713 95.5313 94.485 93.4875 94.485 90.6562C94.485 87.2812 91.8 86.0738 87.3 84.105L84.8325 83.0475C77.7075 80.0138 72.9825 76.215 72.9825 68.1825C72.9825 60.7838 78.6075 55.1475 87.4313 55.1475C90.2877 54.9412 93.1416 55.5805 95.637 56.9856C98.1324 58.3907 100.159 60.4994 101.464 63.0488L93.75 67.98C93.2476 66.716 92.3728 65.6345 91.2416 64.879C90.1105 64.1236 88.7764 63.7298 87.4163 63.75C86.8229 63.6906 86.2236 63.7555 85.6567 63.9404C85.0897 64.1254 84.5675 64.4265 84.1234 64.8244C83.6792 65.2224 83.3228 65.7085 83.0769 66.2518C82.831 66.7951 82.7009 67.3837 82.695 67.98C82.695 70.9388 84.5288 72.1388 88.7625 73.98L91.23 75.0375C99.615 78.6338 104.355 82.2975 104.355 90.5363C104.355 99.42 97.3763 104.287 88.005 104.287C84.3537 104.52 80.713 103.691 77.5223 101.901C74.3317 100.11 71.7274 97.4342 70.0238 94.1963L78.0338 89.5312ZM43.1775 90.3863C44.7263 93.135 46.1363 95.46 49.5263 95.46C52.7663 95.46 54.8138 94.1925 54.8138 89.2612V55.71H64.68V89.3925C64.68 99.6075 58.68 104.257 49.9463 104.257C46.8591 104.426 43.7931 103.657 41.1513 102.051C38.5096 100.444 36.4157 98.0761 35.145 95.2575L43.1775 90.3863Z" fill="white"/>
    </g>

    <g id="tsIcon">
        <path d="M0 60V120H60H120V60V0H60H0V60Z" fill="#007ACC"/>
        <path d="M26.5374 60.3979L26.4993 65.3122H34.3088H42.1184L42.1184 87.5026V109.693H47.6422H53.166V87.5026L53.166 65.3122H60.9755H68.785V60.4931C68.785 57.8264 68.7279 55.5979 68.6517 55.5407C68.5946 55.4645 59.0898 55.4264 47.566 55.4455L26.5946 55.5026L26.5374 60.3979Z" fill="white"/>
        <path d="M96.8264 55.3636C99.874 56.1255 102.198 57.4779 104.331 59.6874C105.436 60.8684 107.074 63.0208 107.207 63.535C107.245 63.6874 102.026 67.1922 98.8644 69.1541C98.7502 69.2303 98.293 68.7351 97.7787 67.9731C96.2359 65.7255 94.6168 64.7541 92.1406 64.5827C88.5025 64.335 86.1597 66.2398 86.1787 69.4208C86.1787 70.3541 86.3121 70.9065 86.693 71.6684C87.493 73.3255 88.9787 74.316 93.6454 76.3351C102.236 80.0303 105.912 82.4684 108.198 85.935C110.75 89.8017 111.322 95.9731 109.588 100.564C107.683 105.554 102.96 108.945 96.3121 110.068C94.2549 110.43 89.3787 110.373 87.1692 109.973C82.3502 109.116 77.7787 106.735 74.9597 103.611C73.8549 102.392 71.7025 99.2112 71.8359 98.9827C71.893 98.9065 72.3883 98.6017 72.9406 98.2779C73.474 97.9731 75.493 96.8112 77.3978 95.7065L80.8454 93.7065L81.5692 94.7731C82.5787 96.316 84.7883 98.4303 86.1216 99.135C89.9502 101.154 95.2073 100.868 97.7978 98.5446C98.9025 97.535 99.3597 96.4874 99.3597 94.9446C99.3597 93.5541 99.1883 92.9446 98.4644 91.897C97.5311 90.5636 95.6263 89.4398 90.2168 87.097C84.0263 84.4303 81.3597 82.7731 78.9216 80.1446C77.5121 78.6208 76.1787 76.1827 75.6264 74.1446C75.1692 72.4493 75.0549 68.2017 75.4168 66.4874C76.693 60.5065 81.2073 56.335 87.7216 55.097C89.8359 54.697 94.7502 54.8493 96.8264 55.3636Z" fill="white"/>
    </g>

    <g id="vscodeIcon">
        <path d="M101.535 17.605L81.3541 7.88899C80.2144 7.33948 78.932 7.15814 77.6847 7.37011C76.4373 7.58208 75.2868 8.17686 74.3926 9.07199L8.3301 69.3C7.52857 70.0273 7.04878 71.0432 6.99627 72.1243C6.94376 73.2053 7.32283 74.2629 8.0501 75.0645C8.1376 75.159 8.2251 75.25 8.3196 75.334L13.7131 80.234C14.4179 80.8754 15.325 81.2497 16.2771 81.2919C17.2291 81.3341 18.1658 81.0416 18.9246 80.465L98.4971 20.125C99.0981 19.6689 99.8145 19.3897 100.566 19.3186C101.317 19.2476 102.073 19.3877 102.749 19.7231C103.425 20.0585 103.993 20.5758 104.391 21.217C104.789 21.8581 105 22.5975 105 23.352V23.1175C105 21.9656 104.675 20.8372 104.062 19.862C103.449 18.8868 102.573 18.1045 101.535 17.605Z" fill="#0065A9"/>
        <path d="M101.535 94.395L81.3541 104.115C80.2141 104.662 78.9321 104.843 77.6851 104.631C76.4381 104.419 75.2876 103.825 74.3926 102.932L8.3301 42.7C7.52857 41.9727 7.04878 40.9568 6.99627 39.8758C6.94376 38.7947 7.32283 37.7371 8.0501 36.9355C8.1376 36.841 8.2251 36.75 8.3196 36.666L13.7131 31.766C14.4186 31.1219 15.3278 30.7459 16.2822 30.7037C17.2366 30.6615 18.1755 30.9557 18.9351 31.535L98.4971 91.875C99.0981 92.3311 99.8145 92.6104 100.566 92.6814C101.317 92.7524 102.073 92.6123 102.749 92.2769C103.425 91.9415 103.993 91.4242 104.391 90.783C104.789 90.1419 105 89.4025 105 88.648V88.9C104.996 90.0488 104.669 91.1733 104.057 92.1451C103.444 93.1168 102.57 93.8965 101.535 94.395Z" fill="#007ACC"/>
        <path d="M81.3539 104.114C80.2139 104.662 78.9319 104.843 77.6849 104.631C76.4379 104.419 75.2874 103.825 74.3924 102.931C74.895 103.428 75.5329 103.764 76.226 103.899C76.9192 104.034 77.6368 103.962 78.2889 103.691C78.941 103.42 79.4987 102.963 79.892 102.376C80.2853 101.79 80.4968 101.1 80.4999 100.394V11.606C80.5005 10.8965 80.2905 10.2028 79.8965 9.61274C79.5025 9.02271 78.9423 8.56288 78.2867 8.29152C77.6312 8.02016 76.9098 7.94946 76.2141 8.0884C75.5183 8.22734 74.8795 8.56965 74.3784 9.07197C75.2728 8.17717 76.423 7.58235 77.6702 7.3698C78.9173 7.15724 80.1997 7.33744 81.3399 7.88547L101.517 17.5875C102.559 18.0845 103.438 18.8657 104.054 19.8411C104.67 20.8165 104.998 21.9463 105 23.1V88.9C105 90.0528 104.675 91.1822 104.061 92.1581C103.447 93.134 102.571 93.9167 101.531 94.416L81.3539 104.114Z" fill="#1F9CF0"/>
    </g>

    <g id="githubIcon">
        <path fill-rule="evenodd" clip-rule="evenodd" d="M44 0C19.69 0 0 19.69 0 44C0 63.47 12.595 79.915 30.085 85.745C32.285 86.13 33.11 84.81 33.11 83.655C33.11 82.61 33.055 79.145 33.055 75.46C22 77.495 19.14 72.765 18.26 70.29C17.765 69.025 15.62 65.12 13.75 64.075C12.21 63.25 10.01 61.215 13.695 61.16C17.16 61.105 19.635 64.35 20.46 65.67C24.42 72.325 30.745 70.455 33.275 69.3C33.66 66.44 34.815 64.515 36.08 63.415C26.29 62.315 16.06 58.52 16.06 41.69C16.06 36.905 17.765 32.945 20.57 29.865C20.13 28.765 18.59 24.255 21.01 18.205C21.01 18.205 24.695 17.05 33.11 22.715C36.63 21.725 40.37 21.23 44.11 21.23C47.85 21.23 51.59 21.725 55.11 22.715C63.525 16.995 67.21 18.205 67.21 18.205C69.63 24.255 68.09 28.765 67.65 29.865C70.455 32.945 72.16 36.85 72.16 41.69C72.16 58.575 61.875 62.315 52.085 63.415C53.68 64.79 55.055 67.43 55.055 71.555C55.055 77.44 55 82.17 55 83.655C55 84.81 55.825 86.185 58.025 85.745C66.7597 82.796 74.3497 77.1822 79.7268 69.6937C85.1039 62.2052 87.9974 53.219 88 44C88 19.69 68.31 0 44 0Z" fill="black"/>
    </g>

    <g id="gitIcon">
        <g clip-path="url(#clip0_2_5685)">
        <path d="M103.02 47.8219L57.1758 1.98038C54.5372 -0.6598 50.2552 -0.6598 47.6134 1.98038L38.0937 11.5001L50.1699 23.5763C52.9762 22.6281 56.1943 23.2642 58.4313 25.5012C60.6789 27.7525 61.3106 30.9981 60.3393 33.8134L71.9775 45.452C74.7932 44.482 78.0421 45.1095 80.291 47.3621C83.434 50.5039 83.434 55.596 80.291 58.7399C77.1471 61.8841 72.055 61.8841 68.9095 58.7399C66.5454 56.3733 65.9613 52.9013 67.1582 49.9888L56.3046 39.1352L56.3034 67.6973C57.0902 68.0863 57.8088 68.6002 58.4313 69.2189C61.5743 72.3607 61.5743 77.4532 58.4313 80.5995C55.2874 83.7422 50.1929 83.7422 47.0535 80.5995C43.9105 77.4532 43.9105 72.3611 47.0535 69.2193C47.8067 68.4658 48.7019 67.869 49.6871 67.4635V38.6352C48.7004 38.2324 47.8048 37.6353 47.0535 36.8793C44.6722 34.5013 44.0996 31.0071 45.3198 28.0831L33.4154 16.1775L1.98105 47.6099C-0.660352 50.2525 -0.660352 54.5349 1.98105 57.1755L47.8259 103.018C50.4652 105.658 54.7464 105.658 57.3891 103.018L103.019 57.3884C105.66 54.747 105.66 50.4621 103.019 47.8219" fill="#DE4C36"/>
        </g>
        <defs>
        <clipPath id="clip0_2_5685">
        <rect width="105" height="105" fill="white"/>
        </clipPath>
        </defs>
    </g>

    <g id="reactIcon">
        <g clip-path="url(#clip0_2_5687)">
        <path d="M92.9055 32.7027C91.703 32.2887 90.4903 31.9051 89.2686 31.5523C89.4738 30.7106 89.6627 29.8792 89.8304 29.0623C92.5837 15.6483 90.7838 4.84178 84.6359 1.28375C78.7415 -2.12722 69.1015 1.42949 59.3658 9.93342C58.4063 10.773 57.4681 11.6368 56.552 12.524C55.9388 11.934 55.3148 11.3556 54.6802 10.7888C44.4766 1.69616 34.2492 -2.13608 28.108 1.43215C22.2188 4.85374 20.4749 15.0127 22.9537 27.7254C23.2003 28.9844 23.4787 30.237 23.7887 31.4819C22.341 31.8947 20.9441 32.3342 19.6072 32.8019C7.64431 36.9881 0.00463867 43.5483 0.00463867 50.3529C0.00463867 57.3808 8.20617 64.43 20.666 68.7043C21.6762 69.0495 22.6947 69.3692 23.7208 69.6634C23.3875 71.0042 23.0917 72.354 22.8336 73.7114C20.4705 86.2035 22.3159 96.1223 28.1892 99.5222C34.2554 103.033 44.4369 99.4247 54.3505 90.7268C55.1544 90.0196 55.9406 89.2925 56.7083 88.546C57.7003 89.5066 58.7188 90.4393 59.7626 91.343C69.3659 99.6365 78.85 102.985 84.7176 99.5762C90.7781 96.055 92.7479 85.3995 90.1906 72.4356C89.9891 71.42 89.7632 70.4094 89.5131 69.4047C90.2281 69.1921 90.9299 68.9732 91.614 68.7455C104.567 64.4384 112.995 57.4747 112.995 50.3529C112.995 43.5234 105.109 36.919 92.9055 32.7027ZM90.0961 64.1474C89.4782 64.3525 88.8444 64.5505 88.1982 64.7432C86.7682 60.1995 84.8385 55.3684 82.4768 50.3764C84.7304 45.5036 86.5859 40.734 87.9758 36.22C89.1317 36.5558 90.2533 36.9097 91.3346 37.2832C101.791 40.8961 108.168 46.2372 108.168 50.3529C108.168 54.7367 101.28 60.4277 90.0961 64.1474ZM85.4556 73.3765C86.5864 79.1087 86.7475 84.2916 85.9985 88.3435C85.3258 91.9844 83.9726 94.4115 82.2989 95.3839C78.7384 97.4526 71.1234 94.7637 62.9109 87.6706C61.94 86.8305 60.9926 85.9634 60.0698 85.0703C63.2538 81.5756 66.4356 77.5131 69.5411 73.0008C75.0035 72.5144 80.164 71.7188 84.8438 70.6331C85.0693 71.5426 85.2732 72.4573 85.4556 73.3765ZM38.5256 95.0264C35.0467 96.2592 32.2758 96.2946 30.6008 95.3254C27.0368 93.2624 25.5551 85.298 27.5761 74.6151C27.8164 73.3527 28.0914 72.0972 28.401 70.8502C33.0292 71.8779 38.1522 72.6168 43.6274 73.0624C46.7541 77.4776 50.0277 81.5358 53.327 85.0894C52.6258 85.7703 51.9081 86.4338 51.1744 87.0793C46.7903 90.9252 42.3973 93.654 38.5256 95.0264ZM22.2276 64.1204C16.718 62.2302 12.1679 59.7738 9.04919 57.0933C6.24649 54.6848 4.8319 52.2932 4.8319 50.3529C4.8319 46.2234 10.9656 40.9564 21.1961 37.3766C22.4377 36.9425 23.7371 36.5327 25.0855 36.1482C26.4996 40.7641 28.3543 45.5904 30.5924 50.4707C28.3251 55.4233 26.444 60.3267 25.0162 64.997C24.0796 64.7278 23.1498 64.4355 22.2276 64.1204ZM27.6909 26.7947C25.5674 15.9031 26.9776 7.68706 30.5267 5.62497C34.3066 3.42867 42.6652 6.56011 51.4754 14.4115C52.0499 14.9247 52.6151 15.4482 53.1707 15.9819C49.8878 19.52 46.6442 23.548 43.5453 27.9371C38.2312 28.4315 33.1444 29.2253 28.4677 30.2889C28.1795 29.131 27.9205 27.9661 27.6909 26.7951V26.7947ZM76.43 38.8739C75.3254 36.9589 74.1797 35.0679 72.9939 33.2024C76.599 33.66 80.0532 34.2673 83.2968 35.0098C82.3232 38.1425 81.1094 41.4175 79.6807 44.7753C78.6364 42.7867 77.5526 40.8191 76.43 38.8739ZM56.5542 19.4443C58.7805 21.8652 61.0103 24.5678 63.2035 27.5003C58.7545 27.2894 54.298 27.2886 49.849 27.4977C52.0443 24.5922 54.2931 21.8931 56.5542 19.4443ZM36.5509 38.9071C35.4424 40.8367 34.3788 42.792 33.3612 44.7713C31.9558 41.4255 30.7531 38.1355 29.7711 34.9584C32.9948 34.2346 36.4326 33.6427 40.0148 33.1935C38.8158 35.0704 37.6608 36.9754 36.5509 38.9067V38.9071ZM40.1176 67.8569C36.4168 67.4423 32.9273 66.881 29.7044 66.1767C30.7019 62.9429 31.9311 59.5829 33.3669 56.1653C34.3886 58.1461 35.4566 60.1026 36.5699 62.033C37.7148 64.0176 38.9003 65.9614 40.1176 67.8569ZM56.6875 81.6027C54.3995 79.1255 52.1176 76.3848 49.8891 73.4372C52.0527 73.5222 54.2582 73.5656 56.5 73.5656C58.803 73.5656 61.0796 73.5138 63.3204 73.4137C61.1202 76.4145 58.8988 79.1592 56.6875 81.6027ZM79.7262 55.9907C81.2365 59.446 82.5094 62.7883 83.5202 65.9667C80.2443 66.7171 76.7072 67.3214 72.9803 67.7701C74.1745 65.8699 75.331 63.9461 76.449 61.9998C77.5857 60.0214 78.6783 58.0179 79.7262 55.9907ZM72.2679 59.5794C70.5563 62.5634 68.7486 65.4909 66.8474 68.357C63.4037 68.6018 59.9523 68.7234 56.5 68.7216C52.9836 68.7216 49.5634 68.6118 46.2699 68.3974C44.3191 65.5378 42.4769 62.6053 40.747 59.6059H40.7475C39.0258 56.6225 37.4176 53.5745 35.9264 50.4685C37.4138 47.3618 39.0171 44.3124 40.7329 41.3267L40.7325 41.3271C42.4476 38.3407 44.2752 35.4206 46.2112 32.5734C49.5713 32.3182 53.0171 32.1853 56.4995 32.1853H56.5C59.9983 32.1853 63.4484 32.3195 66.8077 32.5765C68.7242 35.4195 70.5401 38.3295 72.252 41.301C73.9735 44.2801 75.598 47.3147 77.123 50.3999C75.6137 53.5166 73.9943 56.5783 72.2679 59.5794ZM82.2252 5.48056C86.0086 7.67067 87.4801 16.5024 85.1029 28.0842C84.9511 28.8231 84.7807 29.5757 84.5953 30.339C79.9071 29.2528 74.8168 28.4452 69.4873 27.9433C66.3827 23.506 63.1655 19.4717 59.936 15.9792C60.7824 15.1604 61.6489 14.3628 62.5348 13.5871C70.8767 6.30141 78.673 3.42468 82.2252 5.48056ZM56.5 40.2263C62.0723 40.2263 66.5897 44.7603 66.5897 50.3529C66.5897 55.9456 62.0723 60.4795 56.5 60.4795C50.9277 60.4795 46.4102 55.9456 46.4102 50.3529C46.4102 44.7603 50.9277 40.2263 56.5 40.2263Z" fill="#00D8FF"/>
        </g>
        <defs>
        <clipPath id="clip0_2_5687">
        <rect width="113" height="101" fill="white"/>
        </clipPath>
        </defs>
    </g>


    <g id="linkedinIcon">
        <path style=" stroke:none;fill-rule:nonzero;fill:rgb(100%,100%,100%);fill-opacity:1;" d="M 107.917969 3.765625 L 12.066406 3.765625 C 12.039062 3.765625 12.003906 3.765625 11.964844 3.765625 C 7.46875 3.765625 3.820312 7.378906 3.769531 11.859375 L 3.769531 108.132812 C 3.820312 112.617188 7.46875 116.234375 11.964844 116.234375 C 12.003906 116.234375 12.039062 116.234375 12.074219 116.234375 L 107.90625 116.234375 C 107.9375 116.234375 107.972656 116.234375 108.011719 116.234375 C 112.511719 116.234375 116.167969 112.625 116.238281 108.140625 L 116.238281 11.867188 C 116.167969 7.378906 112.511719 3.765625 108.007812 3.765625 C 107.96875 3.765625 107.9375 3.765625 107.898438 3.765625 Z M 37.125 99.609375 L 20.421875 99.609375 L 20.421875 45.941406 L 37.125 45.941406 Z M 28.777344 38.597656 C 23.433594 38.597656 19.105469 34.265625 19.105469 28.925781 C 19.105469 23.585938 23.4375 19.257812 28.777344 19.257812 C 34.117188 19.257812 38.449219 23.582031 38.449219 28.921875 C 38.449219 28.925781 38.449219 28.929688 38.449219 28.9375 C 38.449219 34.273438 34.121094 38.601562 28.785156 38.601562 C 28.78125 38.601562 28.777344 38.601562 28.773438 38.601562 Z M 99.585938 99.609375 L 82.929688 99.609375 L 82.929688 73.511719 C 82.929688 67.285156 82.804688 59.28125 74.253906 59.28125 C 65.570312 59.28125 64.246094 66.050781 64.246094 73.054688 L 64.246094 99.609375 L 47.589844 99.609375 L 47.589844 45.945312 L 63.589844 45.945312 L 63.589844 53.261719 L 63.804688 53.261719 C 66.910156 48.03125 72.527344 44.578125 78.953125 44.578125 C 79.179688 44.578125 79.40625 44.582031 79.632812 44.589844 L 79.597656 44.589844 C 96.472656 44.589844 99.59375 55.699219 99.59375 70.15625 L 99.59375 99.609375 Z M 99.585938 99.609375 "/>
    </g>

    <g id="telegramIcon">
        <path style=" stroke:none;fill-rule:evenodd;fill:rgb(100%,100%,100%);fill-opacity:1;" d="M 115.558594 22.472656 C 117.148438 14.722656 109.535156 8.285156 102.160156 11.136719 L 11.710938 46.078125 C 3.472656 49.261719 3.105469 60.785156 11.125 64.488281 L 30.824219 73.578125 L 40.191406 106.371094 C 40.679688 108.078125 42.03125 109.394531 43.746094 109.839844 C 45.460938 110.285156 47.28125 109.789062 48.535156 108.535156 L 62.96875 94.101562 L 83.1875 109.265625 C 89.054688 113.667969 97.507812 110.460938 98.984375 103.273438 Z M 15.316406 55.40625 L 105.761719 20.464844 L 89.1875 101.265625 L 65.5 83.5 C 63.507812 82.007812 60.722656 82.203125 58.964844 83.964844 L 52.78125 90.144531 L 54.640625 79.929688 L 91.035156 43.535156 C 92.808594 41.765625 92.992188 38.957031 91.472656 36.964844 C 89.953125 34.972656 87.195312 34.414062 85.019531 35.660156 L 34.757812 64.378906 Z M 40.882812 72.394531 L 43.917969 83.007812 L 45.082031 76.605469 C 45.261719 75.605469 45.746094 74.683594 46.464844 73.964844 L 57.5625 62.863281 Z M 40.882812 72.394531 "/>
    </g>

    <g id="viberIcon">
        <path style=" stroke:none;fill-rule:nonzero;fill:rgb(100%,100%,100%);fill-opacity:1;" d="M 63.714844 67.273438 C 63.714844 67.273438 65.496094 67.425781 66.449219 66.246094 L 68.320312 63.894531 C 69.21875 62.734375 71.390625 61.996094 73.519531 63.175781 C 75.113281 64.085938 76.664062 65.074219 78.160156 66.140625 C 79.570312 67.175781 82.460938 69.589844 82.46875 69.589844 C 83.851562 70.753906 84.171875 72.460938 83.230469 74.261719 L 83.21875 74.300781 C 82.1875 76.089844 80.875 77.707031 79.335938 79.085938 L 79.300781 79.109375 C 77.964844 80.226562 76.648438 80.863281 75.355469 81.015625 C 75.164062 81.050781 74.972656 81.0625 74.78125 81.054688 C 74.210938 81.058594 73.644531 80.972656 73.105469 80.796875 L 73.058594 80.734375 C 71.070312 80.171875 67.75 78.765625 62.214844 75.714844 C 59.015625 73.96875 55.964844 71.957031 53.105469 69.695312 C 51.667969 68.5625 50.300781 67.347656 49.003906 66.058594 L 48.730469 65.785156 L 48.589844 65.648438 L 48.453125 65.511719 C 47.164062 64.214844 45.953125 62.84375 44.820312 61.410156 C 42.558594 58.546875 40.546875 55.5 38.800781 52.300781 C 35.75 46.765625 34.34375 43.449219 33.78125 41.449219 L 33.71875 41.410156 C 33.542969 40.871094 33.457031 40.304688 33.464844 39.734375 C 33.453125 39.542969 33.464844 39.351562 33.5 39.160156 C 33.660156 37.871094 34.296875 36.554688 35.410156 35.210938 L 35.433594 35.175781 C 36.8125 33.632812 38.429688 32.324219 40.21875 31.289062 L 40.253906 31.285156 C 42.054688 30.34375 43.765625 30.664062 44.925781 32.035156 C 44.933594 32.039062 47.34375 34.933594 48.375 36.34375 C 49.441406 37.84375 50.429688 39.394531 51.339844 40.988281 C 52.523438 43.113281 51.785156 45.289062 50.621094 46.191406 L 48.269531 48.054688 C 47.085938 49.015625 47.238281 50.796875 47.238281 50.796875 C 47.238281 50.796875 50.71875 63.960938 63.714844 67.273438 Z M 59.324219 27.898438 C 58.988281 27.894531 58.664062 28.027344 58.421875 28.261719 C 58.183594 28.5 58.046875 28.824219 58.046875 29.160156 C 58.042969 29.859375 58.605469 30.425781 59.304688 30.429688 C 66.070312 30.480469 71.574219 32.664062 76.085938 37.058594 C 80.554688 41.421875 82.839844 47.34375 82.898438 55.113281 C 82.902344 55.8125 83.472656 56.378906 84.171875 56.375 C 84.507812 56.375 84.828125 56.238281 85.066406 56 C 85.300781 55.761719 85.433594 55.4375 85.429688 55.101562 C 85.363281 46.828125 82.84375 40.121094 77.851562 35.25 C 72.898438 30.425781 66.640625 27.949219 59.324219 27.898438 Z M 61.640625 34.464844 C 61.304688 34.441406 60.972656 34.550781 60.71875 34.769531 C 60.464844 34.988281 60.308594 35.300781 60.285156 35.636719 C 60.261719 35.96875 60.371094 36.300781 60.589844 36.554688 C 60.808594 36.808594 61.121094 36.964844 61.453125 36.988281 C 66.285156 37.34375 69.863281 38.925781 72.480469 41.773438 C 75.101562 44.640625 76.34375 48.125 76.25 52.480469 C 76.234375 53.179688 76.792969 53.757812 77.488281 53.769531 C 78.183594 53.785156 78.761719 53.234375 78.78125 52.539062 C 78.886719 47.648438 77.398438 43.40625 74.34375 40.070312 C 71.261719 36.699219 66.945312 34.851562 61.644531 34.464844 Z M 63.535156 41.25 C 63.199219 41.230469 62.871094 41.347656 62.621094 41.574219 C 62.371094 41.800781 62.222656 42.113281 62.203125 42.449219 C 62.167969 43.148438 62.703125 43.742188 63.398438 43.78125 C 65.578125 43.894531 67.050781 44.511719 68.050781 45.535156 C 69.039062 46.566406 69.648438 48.113281 69.765625 50.390625 C 69.800781 51.085938 70.390625 51.621094 71.085938 51.589844 C 71.777344 51.554688 72.3125 50.96875 72.285156 50.273438 C 72.148438 47.589844 71.386719 45.355469 69.863281 43.773438 C 68.339844 42.203125 66.148438 41.386719 63.535156 41.25 Z M 96.714844 19.75 C 94.230469 17.460938 84.183594 10.171875 61.816406 10.070312 C 61.816406 10.070312 35.441406 8.480469 22.578125 20.273438 C 15.425781 27.433594 12.90625 37.910156 12.640625 50.898438 C 12.375 63.886719 12.03125 88.226562 35.488281 94.824219 L 35.515625 94.824219 L 35.5 104.898438 C 35.5 104.898438 35.351562 108.976562 38.035156 109.804688 C 41.285156 110.816406 43.183594 107.714844 46.285156 104.375 C 47.988281 102.539062 50.339844 99.851562 52.109375 97.789062 C 68.160156 99.140625 80.5 96.054688 81.898438 95.59375 C 85.140625 94.546875 103.476562 92.195312 106.449219 67.859375 C 109.53125 42.773438 104.964844 26.910156 96.714844 19.753906 Z M 99.433594 66.058594 C 96.914062 86.378906 82.046875 87.660156 79.304688 88.539062 C 78.140625 88.914062 67.300781 91.609375 53.671875 90.71875 C 53.671875 90.71875 43.515625 102.96875 40.339844 106.160156 C 39.84375 106.660156 39.265625 106.859375 38.875 106.761719 C 38.324219 106.625 38.175781 105.980469 38.183594 105.035156 L 38.269531 88.300781 C 38.269531 88.300781 38.261719 88.300781 38.269531 88.300781 C 18.421875 82.789062 19.578125 62.070312 19.804688 51.226562 C 20.03125 40.375 22.070312 31.488281 28.125 25.511719 C 39 15.660156 61.398438 17.128906 61.398438 17.128906 C 80.320312 17.214844 89.390625 22.914062 91.488281 24.820312 C 98.46875 30.800781 102.03125 45.101562 99.429688 66.054688 Z M 99.433594 66.058594 "/>
    </g>

    <g id="phoneIcon">
        <path style="fill:none;stroke-width:1.5;stroke-linecap:round;stroke-linejoin:miter;stroke:rgb(100%,100%,100%);stroke-opacity:1;stroke-miterlimit:4;" d="M 13.5 2 C 13.5 2 15.833594 2.2125 18.803125 5.182031 C 21.773438 8.151563 21.985156 10.485156 21.985156 10.485156 " transform="matrix(5,0,0,5,0,0)"/>
        <path style="fill:none;stroke-width:1.5;stroke-linecap:round;stroke-linejoin:miter;stroke:rgb(100%,100%,100%);stroke-opacity:1;stroke-miterlimit:4;" d="M 14.207031 5.535938 C 14.207031 5.535938 15.196875 5.81875 16.682031 7.303125 C 18.167188 8.788281 18.45 9.778125 18.45 9.778125 " transform="matrix(5,0,0,5,0,0)"/>
        <path style=" stroke:none;fill-rule:nonzero;fill:rgb(100%,100%,100%);fill-opacity:1;" d="M 75.503906 75.136719 L 72.785156 72.554688 Z M 77.78125 72.738281 L 80.5 75.320312 Z M 89.863281 71.0625 L 87.992188 74.3125 Z M 99.417969 76.558594 L 97.546875 79.808594 Z M 102.109375 93.792969 L 104.828125 96.375 Z M 95.003906 101.269531 L 92.285156 98.6875 Z M 88.382812 104.816406 L 88.75 108.546875 Z M 39.078125 82.375 L 41.796875 79.792969 Z M 15.015625 34.828125 L 11.269531 35.03125 Z M 47.386719 42.515625 L 50.105469 45.097656 Z M 48.171875 28.464844 L 51.234375 26.300781 Z M 41.867188 19.546875 L 38.804688 21.714844 Z M 26.308594 18.042969 L 29.027344 20.625 Z M 18.460938 26.304688 L 15.742188 23.722656 Z M 55.316406 65.28125 L 58.035156 62.695312 Z M 78.222656 77.71875 L 80.5 75.320312 L 75.0625 70.15625 L 72.785156 72.554688 Z M 87.992188 74.3125 L 97.546875 79.808594 L 101.289062 73.308594 L 91.734375 67.8125 Z M 99.390625 91.210938 L 92.285156 98.6875 L 97.722656 103.851562 L 104.828125 96.375 Z M 88.011719 101.082031 C 80.839844 101.792969 62.117188 101.1875 41.796875 79.792969 L 36.359375 84.957031 C 58.503906 108.273438 79.628906 109.449219 88.75 108.546875 Z M 41.796875 79.792969 C 22.414062 59.390625 19.164062 42.179688 18.757812 34.628906 L 11.269531 35.03125 C 11.765625 44.277344 15.691406 63.203125 36.359375 84.957031 Z M 48.671875 46.609375 L 50.105469 45.097656 L 44.667969 39.933594 L 43.234375 41.441406 Z M 51.234375 26.300781 L 44.929688 17.382812 L 38.804688 21.714844 L 45.109375 30.628906 Z M 23.589844 15.460938 L 15.742188 23.722656 L 21.179688 28.886719 L 29.027344 20.625 Z M 45.953125 44.023438 C 43.234375 41.441406 43.230469 41.445312 43.226562 41.449219 C 43.226562 41.453125 43.222656 41.457031 43.21875 41.457031 C 43.214844 41.460938 43.210938 41.46875 43.207031 41.472656 C 43.195312 41.484375 43.1875 41.496094 43.175781 41.507812 C 43.15625 41.53125 43.132812 41.554688 43.109375 41.582031 C 43.0625 41.636719 43.011719 41.695312 42.957031 41.765625 C 42.847656 41.90625 42.722656 42.074219 42.589844 42.28125 C 42.328125 42.6875 42.046875 43.226562 41.804688 43.902344 C 41.316406 45.273438 41.050781 47.09375 41.382812 49.363281 C 42.035156 53.824219 44.960938 59.820312 52.597656 67.863281 L 58.035156 62.695312 C 50.898438 55.179688 49.136719 50.554688 48.804688 48.277344 C 48.644531 47.175781 48.808594 46.597656 48.871094 46.417969 C 48.90625 46.3125 48.933594 46.285156 48.910156 46.320312 C 48.898438 46.339844 48.875 46.371094 48.835938 46.421875 C 48.816406 46.445312 48.796875 46.472656 48.769531 46.503906 C 48.753906 46.519531 48.738281 46.535156 48.722656 46.554688 C 48.714844 46.5625 48.707031 46.570312 48.699219 46.578125 C 48.695312 46.585938 48.691406 46.589844 48.6875 46.59375 C 48.683594 46.597656 48.679688 46.597656 48.679688 46.601562 C 48.675781 46.605469 48.671875 46.609375 45.953125 44.023438 Z M 52.597656 67.863281 C 60.210938 75.878906 65.960938 79.03125 70.347656 79.742188 C 72.601562 80.109375 74.421875 79.816406 75.804688 79.273438 C 76.476562 79.007812 77.011719 78.695312 77.410156 78.410156 C 77.613281 78.265625 77.777344 78.132812 77.910156 78.015625 C 77.980469 77.957031 78.039062 77.902344 78.089844 77.851562 C 78.117188 77.828125 78.140625 77.804688 78.160156 77.78125 C 78.171875 77.769531 78.183594 77.757812 78.195312 77.75 C 78.199219 77.742188 78.203125 77.738281 78.207031 77.734375 C 78.210938 77.730469 78.214844 77.726562 78.214844 77.726562 C 78.21875 77.722656 78.222656 77.71875 75.503906 75.136719 C 72.785156 72.554688 72.789062 72.550781 72.792969 72.546875 C 72.792969 72.546875 72.796875 72.542969 72.796875 72.539062 C 72.800781 72.535156 72.808594 72.53125 72.8125 72.527344 C 72.820312 72.515625 72.828125 72.507812 72.835938 72.5 C 72.855469 72.484375 72.871094 72.464844 72.886719 72.453125 C 72.914062 72.421875 72.941406 72.398438 72.964844 72.378906 C 73.015625 72.335938 73.050781 72.308594 73.074219 72.292969 C 73.121094 72.257812 73.113281 72.269531 73.050781 72.296875 C 72.953125 72.332031 72.5 72.492188 71.550781 72.339844 C 69.539062 72.011719 65.195312 70.234375 58.035156 62.695312 Z M 44.929688 17.382812 C 39.859375 10.214844 29.71875 9.007812 23.589844 15.460938 L 29.027344 20.625 C 31.640625 17.875 36.242188 18.089844 38.804688 21.714844 Z M 18.757812 34.628906 C 18.652344 32.632812 19.519531 30.632812 21.179688 28.886719 L 15.742188 23.722656 C 13.0625 26.542969 11.023438 30.460938 11.269531 35.03125 Z M 92.285156 98.6875 C 90.890625 100.15625 89.433594 100.945312 88.011719 101.082031 L 88.75 108.546875 C 92.484375 108.179688 95.507812 106.1875 97.722656 103.851562 Z M 50.105469 45.097656 C 54.945312 40.003906 55.285156 32.035156 51.234375 26.300781 L 45.109375 30.628906 C 47.21875 33.617188 46.894531 37.585938 44.667969 39.933594 Z M 97.546875 79.808594 C 101.648438 82.171875 102.453125 87.984375 99.390625 91.210938 L 104.828125 96.375 C 111.351562 89.503906 109.453125 78.007812 101.289062 73.308594 Z M 80.5 75.320312 C 82.425781 73.292969 85.429688 72.835938 87.992188 74.3125 L 91.734375 67.8125 C 86.242188 64.648438 79.429688 65.554688 75.0625 70.15625 Z M 80.5 75.320312 "/>
    </g>
</svg>
